<svg width="17" height="17" viewBox="0 0 17 17" fill="none" xmlns="http://www.w3.org/2000/svg">
<path d="M6.53063 9.96937C6.60036 10.039 6.65568 10.1217 6.69342 10.2128C6.73116 10.3038 6.75059 10.4014 6.75059 10.5C6.75059 10.5986 6.73116 10.6962 6.69342 10.7872C6.65568 10.8783 6.60036 10.961 6.53063 11.0306L4.06031 13.5L5.78063 15.2194C5.88563 15.3243 5.95716 15.458 5.98615 15.6035C6.01514 15.7491 6.00028 15.9 5.94347 16.0371C5.88665 16.1742 5.79043 16.2914 5.66699 16.3738C5.54354 16.4562 5.39842 16.5001 5.25 16.5H0.75C0.551088 16.5 0.360323 16.421 0.21967 16.2803C0.079018 16.1397 2.3235e-07 15.9489 2.3235e-07 15.75V11.25C-0.000116571 11.1016 0.0438069 10.9565 0.12621 10.833C0.208613 10.7096 0.32579 10.6133 0.462908 10.5565C0.600025 10.4997 0.750917 10.4849 0.89648 10.5139C1.04204 10.5428 1.17573 10.6144 1.28063 10.7194L3 12.4397L5.46938 9.96937C5.53903 9.89964 5.62175 9.84432 5.7128 9.80658C5.80384 9.76884 5.90144 9.74941 6 9.74941C6.09856 9.74941 6.19616 9.76884 6.28721 9.80658C6.37825 9.84432 6.46097 9.89964 6.53063 9.96937ZM4.06031 3L5.78063 1.28063C5.88563 1.17573 5.95716 1.04204 5.98615 0.89648C6.01514 0.750917 6.00028 0.600025 5.94347 0.462908C5.88665 0.32579 5.79043 0.208613 5.66699 0.12621C5.54354 0.0438069 5.39842 -0.000116571 5.25 2.3235e-07H0.75C0.551088 2.3235e-07 0.360323 0.079018 0.21967 0.21967C0.079018 0.360323 2.3235e-07 0.551088 2.3235e-07 0.75V5.25C-0.000116571 5.39842 0.0438069 5.54354 0.12621 5.66699C0.208613 5.79043 0.32579 5.88665 0.462908 5.94347C0.600025 6.00028 0.750917 6.01514 0.89648 5.98615C1.04204 5.95716 1.17573 5.88563 1.28063 5.78063L3 4.06031L5.46938 6.53063C5.61011 6.67136 5.80098 6.75042 6 6.75042C6.19902 6.75042 6.38989 6.67136 6.53063 6.53063C6.67136 6.38989 6.75042 6.19902 6.75042 6C6.75042 5.80098 6.67136 5.61011 6.53063 5.46938L4.06031 3ZM15.75 2.3235e-07H11.25C11.1016 -0.000116571 10.9565 0.0438069 10.833 0.12621C10.7096 0.208613 10.6133 0.32579 10.5565 0.462908C10.4997 0.600025 10.4849 0.750917 10.5139 0.89648C10.5428 1.04204 10.6144 1.17573 10.7194 1.28063L12.4397 3L9.96937 5.46938C9.82864 5.61011 9.74958 5.80098 9.74958 6C9.74958 6.19902 9.82864 6.38989 9.96937 6.53063C10.1101 6.67136 10.301 6.75042 10.5 6.75042C10.699 6.75042 10.8899 6.67136 11.0306 6.53063L13.5 4.06031L15.2194 5.78063C15.3243 5.88563 15.458 5.95716 15.6035 5.98615C15.7491 6.01514 15.9 6.00028 16.0371 5.94347C16.1742 5.88665 16.2914 5.79043 16.3738 5.66699C16.4562 5.54354 16.5001 5.39842 16.5 5.25V0.75C16.5 0.551088 16.421 0.360323 16.2803 0.21967C16.1397 0.079018 15.9489 2.3235e-07 15.75 2.3235e-07ZM16.0369 10.5572C15.8998 10.5003 15.749 10.4854 15.6035 10.5143C15.458 10.5431 15.3243 10.6145 15.2194 10.7194L13.5 12.4397L11.0306 9.96937C10.8899 9.82864 10.699 9.74958 10.5 9.74958C10.301 9.74958 10.1101 9.82864 9.96937 9.96937C9.82864 10.1101 9.74958 10.301 9.74958 10.5C9.74958 10.699 9.82864 10.8899 9.96937 11.0306L12.4397 13.5L10.7194 15.2194C10.6144 15.3243 10.5428 15.458 10.5139 15.6035C10.4849 15.7491 10.4997 15.9 10.5565 16.0371C10.6133 16.1742 10.7096 16.2914 10.833 16.3738C10.9565 16.4562 11.1016 16.5001 11.25 16.5H15.75C15.9489 16.5 16.1397 16.421 16.2803 16.2803C16.421 16.1397 16.5 15.9489 16.5 15.75V11.25C16.5 11.1017 16.456 10.9567 16.3735 10.8334C16.2911 10.71 16.1739 10.6139 16.0369 10.5572Z" fill="white"/>
</svg>
