<svg width="29" height="31" viewBox="0 0 29 31" fill="none" xmlns="http://www.w3.org/2000/svg">
<g filter="url(#filter0_d_332_7585)">
<path d="M23.4019 9.16601C23.2253 9.25744 23.0197 9.27502 22.8302 9.2149C22.6407 9.15478 22.4828 9.02187 22.3912 8.84539C21.6754 7.43116 20.5918 6.23586 19.2544 5.38508C19.171 5.33251 19.0988 5.26403 19.042 5.18357C18.9851 5.10311 18.9446 5.01223 18.9228 4.91612C18.9011 4.82001 18.8984 4.72055 18.9151 4.62343C18.9318 4.52631 18.9674 4.43342 19.02 4.35008C19.0726 4.26673 19.141 4.19455 19.2215 4.13766C19.302 4.08078 19.3928 4.0403 19.489 4.01853C19.5851 3.99677 19.6845 3.99415 19.7816 4.01082C19.8788 4.02749 19.9717 4.06313 20.055 4.1157C21.6137 5.1137 22.8793 6.50779 23.7225 8.15539C23.8139 8.33194 23.8315 8.53756 23.7714 8.72707C23.7113 8.91658 23.5784 9.07446 23.4019 9.16601ZM5.74969 9.25039C5.88709 9.25033 6.02184 9.21253 6.13922 9.14111C6.2566 9.06969 6.35211 8.96739 6.41531 8.84539C7.13119 7.43116 8.21477 6.23586 9.55219 5.38508C9.72052 5.27891 9.83978 5.11022 9.88373 4.91612C9.92768 4.72202 9.89273 4.51841 9.78656 4.35008C9.68039 4.18175 9.5117 4.06249 9.3176 4.01853C9.1235 3.97458 8.91989 4.00953 8.75156 4.1157C7.19288 5.1137 5.92723 6.50779 5.08406 8.15539C5.02485 8.26969 4.99605 8.3973 5.00044 8.52596C5.00482 8.65461 5.04225 8.77997 5.10912 8.88997C5.17598 8.99996 5.27004 9.0909 5.38222 9.15402C5.49441 9.21715 5.62096 9.25033 5.74969 9.25039ZM23.1966 18.9948C23.3294 19.2226 23.3999 19.4815 23.4008 19.7452C23.4017 20.009 23.333 20.2683 23.2017 20.4971C23.0704 20.7259 22.8811 20.916 22.6529 21.0482C22.4247 21.1805 22.1656 21.2502 21.9019 21.2504H18.0769C17.9047 22.0981 17.4448 22.8602 16.7751 23.4077C16.1053 23.9551 15.2669 24.2541 14.4019 24.2541C13.5369 24.2541 12.6984 23.9551 12.0287 23.4077C11.3589 22.8602 10.899 22.0981 10.7269 21.2504H6.90187C6.63827 21.2499 6.37946 21.1799 6.1515 21.0475C5.92355 20.9151 5.73452 20.725 5.60344 20.4963C5.47235 20.2676 5.40386 20.0084 5.40484 19.7448C5.40583 19.4812 5.47627 19.2225 5.60906 18.9948C6.45375 17.537 6.90187 15.4641 6.90187 13.0004C6.90187 11.0113 7.69205 9.10361 9.09857 7.69709C10.5051 6.29056 12.4127 5.50039 14.4019 5.50039C16.391 5.50039 18.2987 6.29056 19.7052 7.69709C21.1117 9.10361 21.9019 11.0113 21.9019 13.0004C21.9019 15.4632 22.35 17.536 23.1966 18.9948ZM16.5225 21.2504H12.2812C12.4366 21.6886 12.7239 22.0679 13.1037 22.3361C13.4834 22.6044 13.9369 22.7484 14.4019 22.7484C14.8668 22.7484 15.3203 22.6044 15.7001 22.3361C16.0798 22.0679 16.3671 21.6886 16.5225 21.2504Z" fill="white"/>
</g>
<defs>
<filter id="filter0_d_332_7585" x="0" y="0" width="28.8065" height="30.2542" filterUnits="userSpaceOnUse" color-interpolation-filters="sRGB">
<feFlood flood-opacity="0" result="BackgroundImageFix"/>
<feColorMatrix in="SourceAlpha" type="matrix" values="0 0 0 0 0 0 0 0 0 0 0 0 0 0 0 0 0 0 127 0" result="hardAlpha"/>
<feOffset dy="1"/>
<feGaussianBlur stdDeviation="2.5"/>
<feComposite in2="hardAlpha" operator="out"/>
<feColorMatrix type="matrix" values="0 0 0 0 0 0 0 0 0 0 0 0 0 0 0 0 0 0 0.25 0"/>
<feBlend mode="normal" in2="BackgroundImageFix" result="effect1_dropShadow_332_7585"/>
<feBlend mode="normal" in="SourceGraphic" in2="effect1_dropShadow_332_7585" result="shape"/>
</filter>
</defs>
</svg>
