<svg width="28" height="30" viewBox="0 0 28 30" fill="none" xmlns="http://www.w3.org/2000/svg">
<g filter="url(#filter0_d_333_7589)">
<path d="M17.7489 22.75C17.7489 22.9489 17.6699 23.1397 17.5292 23.2803C17.3886 23.421 17.1978 23.5 16.9989 23.5H10.9989C10.8 23.5 10.6092 23.421 10.4686 23.2803C10.3279 23.1397 10.2489 22.9489 10.2489 22.75C10.2489 22.5511 10.3279 22.3603 10.4686 22.2197C10.6092 22.079 10.8 22 10.9989 22H16.9989C17.1978 22 17.3886 22.079 17.5292 22.2197C17.6699 22.3603 17.7489 22.5511 17.7489 22.75ZM22.7936 18.2444C22.2724 17.3481 21.4989 14.8122 21.4989 11.5C21.4989 9.51088 20.7087 7.60322 19.3022 6.1967C17.8957 4.79018 15.988 4 13.9989 4C12.0098 4 10.1021 4.79018 8.69561 6.1967C7.28909 7.60322 6.49891 9.51088 6.49891 11.5C6.49891 14.8131 5.72454 17.3481 5.20423 18.2444C5.07135 18.4722 5.00091 18.7311 5.00001 18.9949C4.9991 19.2586 5.06776 19.518 5.19907 19.7467C5.33037 19.9755 5.51968 20.1656 5.74789 20.2978C5.9761 20.4301 6.23515 20.4998 6.49891 20.5H21.4989C21.7626 20.4996 22.0215 20.4298 22.2496 20.2975C22.4777 20.1651 22.6669 19.975 22.7981 19.7463C22.9292 19.5176 22.9978 19.2583 22.9969 18.9946C22.9959 18.7309 22.9255 18.4722 22.7927 18.2444H22.7936Z" fill="white"/>
</g>
<defs>
<filter id="filter0_d_333_7589" x="0" y="0" width="27.9969" height="29.5" filterUnits="userSpaceOnUse" color-interpolation-filters="sRGB">
<feFlood flood-opacity="0" result="BackgroundImageFix"/>
<feColorMatrix in="SourceAlpha" type="matrix" values="0 0 0 0 0 0 0 0 0 0 0 0 0 0 0 0 0 0 127 0" result="hardAlpha"/>
<feOffset dy="1"/>
<feGaussianBlur stdDeviation="2.5"/>
<feComposite in2="hardAlpha" operator="out"/>
<feColorMatrix type="matrix" values="0 0 0 0 0 0 0 0 0 0 0 0 0 0 0 0 0 0 0.25 0"/>
<feBlend mode="normal" in2="BackgroundImageFix" result="effect1_dropShadow_333_7589"/>
<feBlend mode="normal" in="SourceGraphic" in2="effect1_dropShadow_333_7589" result="shape"/>
</filter>
</defs>
</svg>
