<svg width="30" height="30" viewBox="0 0 30 30" fill="none" xmlns="http://www.w3.org/2000/svg">
<g filter="url(#filter0_d_332_7579)">
<path d="M14.75 4C12.8216 4 10.9366 4.57183 9.33319 5.64317C7.72982 6.71452 6.48013 8.23726 5.74218 10.0188C5.00422 11.8004 4.81114 13.7608 5.18735 15.6521C5.56355 17.5434 6.49215 19.2807 7.85571 20.6443C9.21927 22.0079 10.9566 22.9365 12.8479 23.3127C14.7392 23.6889 16.6996 23.4958 18.4812 22.7578C20.2627 22.0199 21.7855 20.7702 22.8568 19.1668C23.9282 17.5634 24.5 15.6784 24.5 13.75C24.4973 11.165 23.4692 8.68661 21.6413 6.85872C19.8134 5.03084 17.335 4.00273 14.75 4ZM14 9.25C14 9.05109 14.079 8.86032 14.2197 8.71967C14.3603 8.57902 14.5511 8.5 14.75 8.5C14.9489 8.5 15.1397 8.57902 15.2803 8.71967C15.421 8.86032 15.5 9.05109 15.5 9.25V14.5C15.5 14.6989 15.421 14.8897 15.2803 15.0303C15.1397 15.171 14.9489 15.25 14.75 15.25C14.5511 15.25 14.3603 15.171 14.2197 15.0303C14.079 14.8897 14 14.6989 14 14.5V9.25ZM14.75 19C14.5275 19 14.31 18.934 14.125 18.8104C13.94 18.6868 13.7958 18.5111 13.7106 18.3055C13.6255 18.1 13.6032 17.8738 13.6466 17.6555C13.69 17.4373 13.7972 17.2368 13.9545 17.0795C14.1118 16.9222 14.3123 16.815 14.5305 16.7716C14.7488 16.7282 14.975 16.7505 15.1805 16.8356C15.3861 16.9208 15.5618 17.065 15.6854 17.25C15.809 17.435 15.875 17.6525 15.875 17.875C15.875 18.1734 15.7565 18.4595 15.5455 18.6705C15.3345 18.8815 15.0484 19 14.75 19Z" fill="white"/>
</g>
<defs>
<filter id="filter0_d_332_7579" x="0" y="0" width="29.5" height="29.5" filterUnits="userSpaceOnUse" color-interpolation-filters="sRGB">
<feFlood flood-opacity="0" result="BackgroundImageFix"/>
<feColorMatrix in="SourceAlpha" type="matrix" values="0 0 0 0 0 0 0 0 0 0 0 0 0 0 0 0 0 0 127 0" result="hardAlpha"/>
<feOffset dy="1"/>
<feGaussianBlur stdDeviation="2.5"/>
<feComposite in2="hardAlpha" operator="out"/>
<feColorMatrix type="matrix" values="0 0 0 0 0 0 0 0 0 0 0 0 0 0 0 0 0 0 0.25 0"/>
<feBlend mode="normal" in2="BackgroundImageFix" result="effect1_dropShadow_332_7579"/>
<feBlend mode="normal" in="SourceGraphic" in2="effect1_dropShadow_332_7579" result="shape"/>
</filter>
</defs>
</svg>
