<svg width="21" height="21" viewBox="0 0 21 21" fill="none" xmlns="http://www.w3.org/2000/svg">
<path d="M7.50059 11.2506H4.50059V13.5006C4.50071 13.649 4.45678 13.7941 4.37438 13.9176C4.29198 14.041 4.1748 14.1372 4.03768 14.1941C3.90057 14.2509 3.74967 14.2657 3.60411 14.2367C3.45855 14.2077 3.32486 14.1362 3.21996 14.0312L0.219965 11.0312C0.150233 10.9616 0.0949133 10.8788 0.0571701 10.7878C0.0194269 10.6967 0 10.5992 0 10.5006C0 10.402 0.0194269 10.3044 0.0571701 10.2134C0.0949133 10.1223 0.150233 10.0396 0.219965 9.96996L3.21996 6.96996C3.32486 6.86496 3.45855 6.79343 3.60411 6.76444C3.74967 6.73546 3.90057 6.75031 4.03768 6.80712C4.1748 6.86394 4.29198 6.96016 4.37438 7.0836C4.45678 7.20705 4.50071 7.35217 4.50059 7.50059V9.75059H7.50059C7.6995 9.75059 7.89027 9.82961 8.03092 9.97026C8.17157 10.1109 8.25059 10.3017 8.25059 10.5006C8.25059 10.6995 8.17157 10.8903 8.03092 11.0309C7.89027 11.1716 7.6995 11.2506 7.50059 11.2506ZM7.50059 4.50059H9.75059V7.50059C9.75059 7.6995 9.82961 7.89027 9.97026 8.03092C10.1109 8.17157 10.3017 8.25059 10.5006 8.25059C10.6995 8.25059 10.8903 8.17157 11.0309 8.03092C11.1716 7.89027 11.2506 7.6995 11.2506 7.50059V4.50059H13.5006C13.649 4.50071 13.7941 4.45678 13.9176 4.37438C14.041 4.29198 14.1372 4.1748 14.1941 4.03768C14.2509 3.90057 14.2657 3.74967 14.2367 3.60411C14.2077 3.45855 14.1362 3.32486 14.0312 3.21996L11.0312 0.219965C10.9616 0.150233 10.8788 0.0949133 10.7878 0.0571701C10.6967 0.0194269 10.5992 0 10.5006 0C10.402 0 10.3044 0.0194269 10.2134 0.0571701C10.1223 0.0949133 10.0396 0.150233 9.96996 0.219965L6.96996 3.21996C6.86496 3.32486 6.79343 3.45855 6.76444 3.60411C6.73546 3.74967 6.75031 3.90057 6.80712 4.03768C6.86394 4.1748 6.96016 4.29198 7.0836 4.37438C7.20705 4.45678 7.35217 4.50071 7.50059 4.50059ZM20.7812 9.96996L17.7812 6.96996C17.6763 6.86496 17.5426 6.79343 17.3971 6.76444C17.2515 6.73546 17.1006 6.75031 16.9635 6.80712C16.8264 6.86394 16.7092 6.96016 16.6268 7.0836C16.5444 7.20705 16.5005 7.35217 16.5006 7.50059V9.75059H13.5006C13.3017 9.75059 13.1109 9.82961 12.9703 9.97026C12.8296 10.1109 12.7506 10.3017 12.7506 10.5006C12.7506 10.6995 12.8296 10.8903 12.9703 11.0309C13.1109 11.1716 13.3017 11.2506 13.5006 11.2506H16.5006V13.5006C16.5005 13.649 16.5444 13.7941 16.6268 13.9176C16.7092 14.041 16.8264 14.1372 16.9635 14.1941C17.1006 14.2509 17.2515 14.2657 17.3971 14.2367C17.5426 14.2077 17.6763 14.1362 17.7812 14.0312L20.7812 11.0312C20.8509 10.9616 20.9063 10.8788 20.944 10.7878C20.9818 10.6967 21.0012 10.5992 21.0012 10.5006C21.0012 10.402 20.9818 10.3044 20.944 10.2134C20.9063 10.1223 20.8509 10.0396 20.7812 9.96996ZM13.5006 16.5006H11.2506V13.5006C11.2506 13.3017 11.1716 13.1109 11.0309 12.9703C10.8903 12.8296 10.6995 12.7506 10.5006 12.7506C10.3017 12.7506 10.1109 12.8296 9.97026 12.9703C9.82961 13.1109 9.75059 13.3017 9.75059 13.5006V16.5006H7.50059C7.35217 16.5005 7.20705 16.5444 7.0836 16.6268C6.96016 16.7092 6.86394 16.8264 6.80712 16.9635C6.75031 17.1006 6.73546 17.2515 6.76444 17.3971C6.79343 17.5426 6.86496 17.6763 6.96996 17.7812L9.96996 20.7812C10.0396 20.8509 10.1223 20.9063 10.2134 20.944C10.3044 20.9818 10.402 21.0012 10.5006 21.0012C10.5992 21.0012 10.6967 20.9818 10.7878 20.944C10.8788 20.9063 10.9616 20.8509 11.0312 20.7812L14.0312 17.7812C14.1362 17.6763 14.2077 17.5426 14.2367 17.3971C14.2657 17.2515 14.2509 17.1006 14.1941 16.9635C14.1372 16.8264 14.041 16.7092 13.9176 16.6268C13.7941 16.5444 13.649 16.5005 13.5006 16.5006Z" fill="white"/>
</svg>
