<svg width="358" height="106" viewBox="0 0 358 106" fill="none" xmlns="http://www.w3.org/2000/svg">
<path d="M179 1.5C228.327 1.5 272.927 7.42209 305.146 16.9619C321.266 21.7347 334.201 27.3881 343.073 33.5986C351.987 39.8389 356.5 46.4185 356.5 53C356.5 59.5815 351.987 66.1611 343.073 72.4014C334.201 78.6119 321.266 84.2653 305.146 89.0381C272.927 98.5779 228.327 104.5 179 104.5C129.673 104.5 85.0729 98.5779 52.8535 89.0381C36.7342 84.2653 23.7986 78.6119 14.9268 72.4014C6.01253 66.1611 1.5 59.5815 1.5 53C1.5 46.4185 6.01253 39.8389 14.9268 33.5986C23.7986 27.3881 36.7342 21.7347 52.8535 16.9619C85.0729 7.42209 129.673 1.5 179 1.5Z" stroke="url(#paint0_linear_416_2227)" stroke-width="3"/>
<defs>
<linearGradient id="paint0_linear_416_2227" x1="190" y1="106" x2="190" y2="-5.27745e-06" gradientUnits="userSpaceOnUse">
<stop stop-color="#DC2713"/>
<stop offset="1" stop-color="#270501"/>
</linearGradient>
</defs>
</svg>
